<svg xmlns="http://www.w3.org/2000/svg" viewBox="0 0 256 256">
  <rect width="256" height="256" rx="56" fill="#0f1418"/>
  <path d="M128 44c-6 0-10 4-10 10v58c-30 5-52 31-52 62 0 35 28 64 62 64s62-29 62-64c0-31-22-57-52-62V54c0-6-4-10-10-10Z" fill="#cfe8df"/>
  <path d="M128 128c-21 0-38 17-38 38 0 21 17 38 38 38s38-17 38-38c0-21-17-38-38-38Z" fill="#56a17f"/>
  <path d="M128 78c17 12 28 27 28 45 0 9-2 16-6 23-7-10-16-18-27-23-11 5-20 13-27 23-4-7-6-14-6-23 0-18 11-33 28-45l5-4 5 4Z" fill="#6bc6a1"/>
</svg>

